# xmcd CD database file generated by Grip 3.3.1
# 
# Track frame offsets:
#       150
#       9550
#       31255
#       39809
#       55440
#       76119
#       88968
#       99919
#       115593
#       126998
#       132372
#       136476
#       148364
#       164757
# 
# Disc length: 2436 seconds
# 
# Revision: 3
# Processed by: cddbd v1.5.2PL0 Copyright (c) Steve Scherf et al.
# Submitted via: Grip 3.3.1
# 
DISCID=bf09820e
DTITLE=verdena - wow disc 2
DYEAR=2011
DGENRE=Alternative
TTITLE0=attonito
TTITLE1=e' solo lunedi'
TTITLE2=tu e me
TTITLE3=badea blues
TTITLE4=nuova luce
TTITLE5=grattacielo
TTITLE6=a capello
TTITLE7=rossella roll over
TTITLE8=canzone ostinata
TTITLE9=12,5 mg
TTITLE10=sul ciglio
TTITLE11=letto di mosche
TTITLE12=la volta
TTITLE13=lei disse (un mondo del tutto differente)
EXTD=
EXTT0=
EXTT1=
EXTT2=
EXTT3=
EXTT4=
EXTT5=
EXTT6=
EXTT7=
EXTT8=
EXTT9=
EXTT10=
EXTT11=
EXTT12=
EXTT13=
PLAYORDER=
